<?xml version="1.0" encoding="UTF-8"?>
<svg version="1.1" xmlns="http://www.w3.org/2000/svg" width="600" height="600">
<path d="M0 0 C15.26849269 8.0075906 23.46598864 29.34745479 28.3762207 44.89794922 C39.64203886 82.86221314 31.14544303 121.35093165 14 156 C13.57702637 156.85835449 13.15405273 157.71670898 12.71826172 158.60107422 C7.84510282 168.39621402 2.60714506 177.88297102 -3.25 187.125 C-3.99987183 188.31899414 -3.99987183 188.31899414 -4.76489258 189.53710938 C-6.86847819 192.84469108 -8.96606712 195.9585565 -11.453125 198.99609375 C-13.61892807 201.71161401 -14.88235237 203.70738469 -16 207 C-15.68311581 209.72268248 -15.24025733 212.05109961 -14.546875 214.67578125 C-14.35965881 215.44574432 -14.17244263 216.2157074 -13.97955322 217.00900269 C-13.56093921 218.73000639 -13.13521714 220.44929169 -12.70361328 222.16708374 C-11.68133721 226.28301303 -10.72825808 230.41440792 -9.76831055 234.54524231 C-8.44271368 240.24175335 -7.09430558 245.93288089 -5.75 251.625 C-5.18999902 253.99997521 -4.63010248 256.37497505 -4.0703125 258.75 C-2.71474317 264.50028392 -1.3578946 270.25026476 0 276 C0.65287994 276.05207611 1.30575989 276.10415222 1.97842407 276.1578064 C4.97821592 276.39984875 7.97736904 276.64909404 10.9765625 276.8984375 C12.00338135 276.9802124 13.0302002 277.0619873 14.08813477 277.14624023 C35.13916053 278.91657361 53.03795075 286.1875677 69 300 C69.67289063 300.57234375 70.34578125 301.1446875 71.0390625 301.734375 C87.41767551 316.84158882 96.77389744 341.3507919 98.20678711 363.14526367 C98.30236023 366.34981787 98.32905129 369.54408759 98.3125 372.75 C98.30512817 374.45506714 98.30512817 374.45506714 98.29760742 376.19458008 C97.91199451 404.01210208 87.79233096 428.77179071 67.875 448.1875 C60.86801696 454.38293981 51.44229893 460.68956688 42 462 C42.2165625 462.804375 42.433125 463.60875 42.65625 464.4375 C48.08745328 487.36924718 46.08403097 509.6793697 34 530 C22.414808 547.68515024 2.82125685 558.36142689 -17.44921875 562.74609375 C-36.87536708 566.07957482 -55.58230848 563.20796094 -72 552 C-79.02697313 547.03143314 -84.55764009 539.90103559 -88 532 C-88.66813545 525.58589968 -87.66027619 518.87929378 -85 513 C-79.5589794 508.04122785 -72.39329992 506.59473057 -65.1796875 506.8125 C-60.98347982 507.1734641 -57.56142933 507.61259618 -54 510 C-49.26145359 516.18832755 -47.10611527 522.82432736 -47.51953125 530.58984375 C-48.22624199 534.13488869 -49.83816845 536.14080344 -52 539 C-51.78717763 541.48131538 -51.39650648 542.62630622 -49.57421875 544.34375 C-38.66700476 551.02808818 -27.65779498 553.44443306 -15 552 C-0.78616743 548.27772171 7.66520721 539.1388676 15 527 C24.13629619 510.79644162 27.02990388 490.19439742 23 472 C22.03964844 472.0721875 21.07929688 472.144375 20.08984375 472.21875 C-26.00010399 475.45112137 -67.97419942 468.62021987 -104 438 C-124.44817885 420.1758441 -137.7089475 392.93587961 -140 366 C-140.83732042 350.18799259 -140.5840073 334.46523698 -137 319 C-136.71793701 317.77869385 -136.71793701 317.77869385 -136.43017578 316.53271484 C-131.27393901 295.09146614 -122.2705186 275.2809325 -110 257 C-109.5771875 256.36771484 -109.154375 255.73542969 -108.71875 255.08398438 C-103.09847984 246.76774088 -96.85354969 239.09845142 -90.29199219 231.51416016 C-88.33163721 229.2167071 -86.45154623 226.85619305 -84.5625 224.5 C-80.70902909 219.75726657 -76.61477352 215.29609292 -72.44384766 210.8359375 C-68.54003836 206.64005715 -64.8779631 202.29403131 -61.2890625 197.82421875 C-59.15029214 195.1854287 -56.9693287 192.59267186 -54.76025391 190.01293945 C-53.80140111 188.88673208 -52.85040027 187.75378818 -51.90771484 186.61401367 C-49.97720583 184.2800165 -48.0747593 182.06776742 -45.828125 180.03125 C-43.76462413 178.02253234 -42.82085534 176.77376942 -42 174 C-42.43743434 168.80398934 -43.79507525 163.96299688 -45.19677734 158.953125 C-46.78037809 153.13086523 -48.12608176 147.24959531 -49.5 141.375 C-49.7275296 140.4059523 -49.7275296 140.4059523 -49.95965576 139.41732788 C-59.0831128 100.45581838 -67.56496606 52.38611932 -46.20214844 15.87060547 C-34.59453606 -2.19144287 -20.41491202 -8.55763066 0 0 Z M-31.015625 23.59765625 C-52.89417841 55.89230356 -45.41825337 101.6790467 -38.6953125 137.49609375 C-37.06165263 145.72863814 -35.10694132 153.87706878 -33 162 C-28.25299437 158.19447808 -24.30253125 154.31406628 -20.75 149.375 C-20.28601807 148.73095215 -19.82203613 148.0869043 -19.34399414 147.42333984 C-0.38645718 120.42872682 17.31626787 81.28131679 12.5 47.4921875 C10.26162831 35.71530009 5.94447889 24.62554992 -4.16796875 17.46484375 C-6.39869937 16.14790639 -8.63401374 15.05154945 -11 14 C-11.66 13.649375 -12.32 13.29875 -13 12.9375 C-21.07596523 9.55080491 -26.52666866 17.81247026 -31.015625 23.59765625 Z M3 292 C9.04622363 318.3472919 15.44978615 344.60785518 21.83654785 370.87420654 C22.97711325 375.56646084 24.11626008 380.25905903 25.25537395 384.95166588 C26.36595518 389.52634777 27.47713149 394.10088494 28.58851051 398.67537308 C29.1128355 400.83358626 29.63704835 402.99182668 30.16113853 405.15009689 C33.06611516 417.1106218 35.9932985 429.06459133 39 441 C54.70152757 431.8622392 64.37871218 415.1177223 69.15625 397.97265625 C75.54991138 373.7509452 74.00941475 349.39167318 62.44140625 326.98046875 C52.23675952 309.87483791 37.52903213 298.46541038 18.23828125 293.25390625 C14.37719662 292.39654443 10.79607894 291.96681677 6.84301758 291.98364258 C5.57482178 291.98904053 4.30662598 291.99443848 3 292 Z M-30 222 C-30.9079166 222.99703257 -31.7751532 224.03115465 -32.625 225.078125 C-33.1617334 225.73780273 -33.6984668 226.39748047 -34.25146484 227.07714844 C-34.82848145 227.79418945 -35.40549805 228.51123047 -36 229.25 C-36.59377441 229.98508789 -37.18754883 230.72017578 -37.79931641 231.47753906 C-42.21539633 236.96922339 -46.49069352 242.54867318 -50.67285156 248.22070312 C-52.24057701 250.3225396 -53.83460284 252.40322706 -55.4296875 254.484375 C-82.253727 289.60081102 -108.39880282 331.21583161 -102.50390625 377.421875 C-99.49299008 397.36976232 -91.79411835 417.02280946 -78 432 C-77.19046875 432.90105469 -76.3809375 433.80210937 -75.546875 434.73046875 C-63.10745955 447.91552168 -46.27218576 458.32511227 -27.7734375 459.3359375 C-26.30753255 459.36553159 -24.84120084 459.37786897 -23.375 459.375 C-22.17532593 459.3747583 -22.17532593 459.3747583 -20.95141602 459.37451172 C-10.468166 459.18374287 -0.24651594 457.06837865 10 455 C10.95890137 454.80889648 11.91780273 454.61779297 12.90576172 454.42089844 C15.27095239 453.94944015 17.63558893 453.4753473 20 453 C20.40002993 444.8694633 18.87617552 437.43488325 17.17016602 429.51586914 C16.86560167 428.06969159 16.56183102 426.62334669 16.25878906 425.17684937 C15.43846524 421.27270464 14.6069295 417.37102686 13.7731297 413.46974111 C12.90121079 409.38140384 12.03922247 405.29097306 11.17601013 401.20079041 C9.7268382 394.34114122 8.27089757 387.48295802 6.81030273 380.62573242 C4.93428597 371.81801964 3.06929954 363.00800954 1.20782566 354.19721317 C-0.39303667 346.62026862 -1.99868061 339.04433868 -3.60522962 331.46859813 C-4.12164686 329.03254709 -4.63745214 326.59636703 -5.15319633 324.16017342 C-5.96218823 320.34038784 -6.7741483 316.52124468 -7.58844757 312.70258713 C-7.88730465 311.29908497 -8.1852252 309.89538303 -8.48215675 308.49147224 C-8.88649049 306.58064783 -9.29457164 304.67061751 -9.7028656 302.76063538 C-9.93054847 301.69013978 -10.15823133 300.61964418 -10.39281368 299.51670933 C-10.89443858 297.0236499 -10.89443858 297.0236499 -12 295 C-29.47780605 300.08219892 -43.23023208 312.06226371 -52.09423828 327.96289062 C-63.33932335 349.32204642 -67.51953178 371.96811245 -61.265625 395.51953125 C-58.54179107 403.01007454 -53.93083499 408.99288727 -49.1875 415.3125 C-47.93665727 416.99416516 -46.68664862 418.67645106 -45.4375 420.359375 C-44.84324219 421.15923828 -44.24898437 421.95910156 -43.63671875 422.78320312 C-35.80406654 433.39186691 -35.80406654 433.39186691 -34 437 C-45.56883794 435.16367652 -53.53120986 428.87773773 -61 420 C-71.99553494 404.43403187 -75.40121361 387.19388034 -75.375 368.5 C-75.37445618 367.84280975 -75.37391235 367.18561951 -75.37335205 366.5085144 C-75.28117306 342.19132666 -68.58621914 315.86244248 -51 298 C-44.6367943 292.95510935 -37.23461546 289.4685784 -29.921875 286.01513672 C-24.61865897 283.47222316 -19.82806086 280.35038163 -15 277 C-18.2150295 248.21263405 -18.2150295 248.21263405 -29 222 C-29.33 222 -29.66 222 -30 222 Z " fill="#000000" transform="translate(200,28)"/>
<path d="M0 0 C10.1968623 3.3989541 20.18324626 21.47670761 26.4375 30 C44.63545705 54.37343705 63.54774338 66.67257587 92.29003906 75.88061523 C105.91362252 80.30487825 119.63679879 85.50689304 126.75 98.75 C133.20543164 113.00308173 134.59520059 128.86102692 129.265625 143.75 C127.84954572 146.26747427 126.4152239 147.45750407 124 149 C123.70867187 147.90042969 123.41734375 146.80085937 123.1171875 145.66796875 C120.69736672 136.82435044 118.10605124 128.72521742 113 121 C112.58492187 120.3709375 112.16984375 119.741875 111.7421875 119.09375 C101.71088634 105.87886225 83.42786933 99.61041902 68.72998047 93.28979492 C53.54428378 86.75301722 40.69487731 79.99557925 29.828125 67.1484375 C26.97180661 63.79165307 23.98331511 60.5551082 21.015625 57.296875 C19.22856433 55.26045702 17.61039059 53.17580136 16 51 C16.45399209 55.25210478 16.90815435 59.50419134 17.36244965 63.75626373 C17.53343749 65.35672003 17.70440174 66.95717884 17.87534332 68.55764008 C18.94388107 78.56100564 20.0156473 88.56401418 21.09326172 98.56640625 C21.51543067 102.48696505 21.93743822 106.4075412 22.359375 110.328125 C22.4667461 111.32543137 22.5741172 112.32273773 22.68474197 113.3502655 C24.01783085 125.74039286 25.33177843 138.13228913 26.61610985 150.52756882 C27.46423161 158.71243685 28.32252984 166.89619704 29.18747902 175.07930374 C29.70367881 179.96907973 30.21434354 184.85928337 30.71087646 189.75109863 C33.1029219 213.28071427 36.33715199 236.34013431 41.32125854 259.46948242 C44.72763881 277.18798968 44.82161997 295.0955337 34.671875 310.671875 C22.44701163 327.69528287 2.60983595 339.35594754 -18 343 C-32.06497482 344.07782812 -44.96866727 343.54929787 -58 338 C-59.08539063 337.54238281 -60.17078125 337.08476562 -61.2890625 336.61328125 C-76.78513076 329.45370541 -89.75256927 317.0000206 -96 301 C-100.68466172 287.4625745 -100.27824452 273.89938246 -94.59375 260.74609375 C-86.67363689 244.92454705 -74.59946183 234.62894408 -57.92578125 228.7890625 C-32.99485099 222.06536702 -6.47162722 225.39663864 16.15625 237.71875 C18.47406213 239.09902014 20.7397499 240.52881724 23 242 C22.38800479 228.55659953 21.22965602 215.21092905 19.86694336 201.82470703 C19.64970161 199.66111689 19.43281858 197.4974907 19.21626282 195.33383179 C18.75314804 190.7143233 18.2875572 186.09507386 17.81995964 181.476017 C17.08070651 174.17320991 16.34718838 166.86983345 15.61439514 159.56637573 C14.45580738 148.02582957 13.29351096 136.48566055 12.12956387 124.9456538 C10.04132841 104.24139109 7.95766291 83.53666909 5.87805468 62.83153808 C5.14837956 55.56842316 4.41648131 48.30553667 3.68279445 41.04282594 C3.22817885 36.53915991 2.77515781 32.03533448 2.32253838 27.53146744 C2.111997 25.43996192 1.90076493 23.34852581 1.68880081 21.257164 C1.40021039 18.40893681 1.11404256 15.56047629 0.82847595 12.71194458 C0.74355721 11.87986548 0.65863847 11.04778637 0.57114643 10.19049275 C0.23023866 6.76782414 0 3.44376665 0 0 Z " fill="#000000" transform="translate(411,10)"/>
<path d="M0 0 C-0.80010402 46.84245326 -17.09439171 99.85332345 -37 142 C-37.61018656 143.34989386 -38.21959134 144.70014145 -38.828125 146.05078125 C-44.99909536 159.44075269 -52.38928856 166.43723577 -66 172 C-70.29042081 173.52435037 -74.58900593 174.87146507 -79 176 C-80.12148438 176.28810547 -80.12148438 176.28810547 -81.265625 176.58203125 C-93.02537229 178.37959262 -105.73633495 178.52654393 -115.8515625 171.76171875 C-119.51021988 168.96137199 -121.57970774 166.30352489 -122.40625 161.7734375 C-122.73438788 153.37857684 -119.55647187 148.10768726 -114.16015625 141.875 C-102.87246863 130.78230122 -87.00889277 125.37196718 -71.4375 124.625 C-64.24457572 124.88631082 -56.80617805 126.73127398 -50 129 C-49.76978149 127.7929541 -49.76978149 127.7929541 -49.53491211 126.56152344 C-47.36345976 115.7767197 -44.16963624 105.44059955 -40.83666992 94.96972656 C-33.65287024 72.86638956 -33.65287024 72.86638956 -31.75 49.875 C-31.76804687 49.00230469 -31.78609375 48.12960937 -31.8046875 47.23046875 C-31.85034336 45.15312729 -31.92197329 43.07637757 -32 41 C-32.67724121 41.10957031 -33.35448242 41.21914063 -34.05224609 41.33203125 C-51.29495836 44.12033509 -68.54037873 46.89164514 -85.78741455 49.65307617 C-87.99637989 50.00678209 -90.2053239 50.36062125 -92.41424561 50.71459961 C-115.12285961 54.353193 -115.12285961 54.353193 -126 56 C-126.18175781 56.61891113 -126.36351562 57.23782227 -126.55078125 57.87548828 C-128.24434584 63.58909755 -130.07189546 69.23711732 -132 74.875 C-134.85120184 83.28812518 -137.45850623 91.76280434 -140.0144043 100.26879883 C-144.46150948 115.0675288 -148.94812072 129.75936653 -155 144 C-155.32033203 144.75748535 -155.64066406 145.5149707 -155.97070312 146.29541016 C-163.51974131 163.86605918 -173.36865288 180.57405602 -191.3359375 188.94140625 C-202.35112034 193.31840706 -214.30084771 191.42590832 -225 187 C-236.31182796 181.68817204 -236.31182796 181.68817204 -240 178 C-240.99869413 171.4741819 -241.6044469 164.79003377 -238.234375 158.9296875 C-235.95885743 156.39875469 -233.60021503 154.19274999 -231 152 C-230.15888672 151.14535156 -230.15888672 151.14535156 -229.30078125 150.2734375 C-218.04541053 139.2165242 -200.77231667 136.62287844 -185.75 136.3125 C-184.61175781 136.27833984 -183.47351563 136.24417969 -182.30078125 136.20898438 C-179.53395298 136.12760707 -176.7673977 136.05810893 -174 136 C-173.8455542 135.28497314 -173.6911084 134.56994629 -173.53198242 133.83325195 C-168.73492112 111.88725913 -162.68624785 90.43948817 -156 69 C-155.62166016 67.7836084 -155.24332031 66.5672168 -154.85351562 65.31396484 C-151.59922816 54.9510744 -148.10356092 44.73405113 -143.8125 34.75 C-143.50352783 34.01628174 -143.19455566 33.28256348 -142.8762207 32.52661133 C-140.92223487 28.18528556 -139.13828441 25.40398265 -135 23 C-128.14857195 20.77216329 -121.40490994 20.78907354 -114.2734375 20.9453125 C-112.00130831 20.97061792 -109.72917256 20.99533889 -107.45703125 21.01953125 C-103.9224734 21.068928 -100.38827067 21.12474787 -96.85400391 21.19189453 C-77.58449521 21.55211701 -77.58449521 21.55211701 -59 17 C-58.33653564 16.75934814 -57.67307129 16.51869629 -56.98950195 16.27075195 C-51.89402839 14.41683815 -46.84991584 12.44291407 -41.8125 10.4375 C-28.19058348 5.0210121 -14.89259817 -0.1037089 0 0 Z M-30.25 19.75 C-56.81139377 32.96863755 -89.962433 32.93744411 -119 36 C-119.33 37.65 -119.66 39.3 -120 41 C-107.858795 45.46863795 -96.26974098 45.79089594 -83.5625 43.8125 C-82.70487061 43.68012939 -81.84724121 43.54775879 -80.96362305 43.41137695 C-61.1349088 40.17829629 -42.01805856 33.83668263 -24 25 C-24 22.36 -24 19.72 -24 17 C-26.12322435 17 -28.44763997 18.79691957 -30.25 19.75 Z " fill="#000000" transform="translate(527,401)"/>
</svg>
